<mxfile host="Electron" modified="2024-07-10T23:37:51.887Z" agent="Mozilla/5.0 (Windows NT 10.0; Win64; x64) AppleWebKit/537.36 (KHTML, like Gecko) draw.io/24.5.3 Chrome/124.0.6367.207 Electron/30.0.6 Safari/537.36" etag="zj39R0VXdP7IBJYMt3pQ" version="24.5.3" type="device">
  <diagram name="Página-1" id="r9o1ebskfS0wYZXJzaHC">
    <mxGraphModel dx="3595" dy="1790" grid="1" gridSize="10" guides="1" tooltips="1" connect="1" arrows="1" fold="1" page="1" pageScale="1" pageWidth="827" pageHeight="1169" math="0" shadow="0">
      <root>
        <mxCell id="0" />
        <mxCell id="1" parent="0" />
        <mxCell id="9WoN3y8LoAJ55qMCBkjY-24" style="edgeStyle=orthogonalEdgeStyle;rounded=0;orthogonalLoop=1;jettySize=auto;html=1;entryX=0.5;entryY=1;entryDx=0;entryDy=0;" edge="1" parent="1" source="9WoN3y8LoAJ55qMCBkjY-1" target="9WoN3y8LoAJ55qMCBkjY-11">
          <mxGeometry relative="1" as="geometry" />
        </mxCell>
        <mxCell id="9WoN3y8LoAJ55qMCBkjY-1" value="Tela Inicial" style="whiteSpace=wrap;html=1;aspect=fixed;" vertex="1" parent="1">
          <mxGeometry x="-2170" y="495" width="180" height="180" as="geometry" />
        </mxCell>
        <mxCell id="9WoN3y8LoAJ55qMCBkjY-11" value="Produtos" style="rounded=0;whiteSpace=wrap;html=1;" vertex="1" parent="1">
          <mxGeometry x="-2140" y="300" width="120" height="60" as="geometry" />
        </mxCell>
        <mxCell id="9WoN3y8LoAJ55qMCBkjY-12" value="Produção" style="rounded=0;whiteSpace=wrap;html=1;" vertex="1" parent="1">
          <mxGeometry x="-1920" y="380" width="120" height="60" as="geometry" />
        </mxCell>
        <mxCell id="9WoN3y8LoAJ55qMCBkjY-13" value="Ferramentas" style="rounded=0;whiteSpace=wrap;html=1;" vertex="1" parent="1">
          <mxGeometry x="-1920" y="690" width="120" height="60" as="geometry" />
        </mxCell>
        <mxCell id="9WoN3y8LoAJ55qMCBkjY-14" value="Descasque" style="rounded=0;whiteSpace=wrap;html=1;" vertex="1" parent="1">
          <mxGeometry x="-1920" y="554.5" width="120" height="60" as="geometry" />
        </mxCell>
        <mxCell id="9WoN3y8LoAJ55qMCBkjY-15" value="Sair" style="rounded=0;whiteSpace=wrap;html=1;" vertex="1" parent="1">
          <mxGeometry x="-2140" y="800" width="120" height="60" as="geometry" />
        </mxCell>
        <mxCell id="9WoN3y8LoAJ55qMCBkjY-25" value="Tabela de Preços&amp;nbsp;&lt;div&gt;&amp;amp;&lt;/div&gt;&lt;div&gt;Matéria Prima&lt;/div&gt;" style="swimlane;fontStyle=0;align=center;verticalAlign=top;childLayout=stackLayout;horizontal=1;startSize=55;horizontalStack=0;resizeParent=1;resizeParentMax=0;resizeLast=0;collapsible=0;marginBottom=0;html=1;whiteSpace=wrap;" vertex="1" parent="1">
          <mxGeometry x="-2150" y="-140" width="140" height="340" as="geometry" />
        </mxCell>
        <mxCell id="9WoN3y8LoAJ55qMCBkjY-26" value="attributes" style="text;html=1;strokeColor=none;fillColor=none;align=center;verticalAlign=middle;spacingLeft=4;spacingRight=4;overflow=hidden;rotatable=0;points=[[0,0.5],[1,0.5]];portConstraint=eastwest;whiteSpace=wrap;" vertex="1" parent="9WoN3y8LoAJ55qMCBkjY-25">
          <mxGeometry y="55" width="140" height="20" as="geometry" />
        </mxCell>
        <mxCell id="9WoN3y8LoAJ55qMCBkjY-27" value="Relevancia&lt;div&gt;Peso&lt;/div&gt;&lt;div&gt;Código&lt;/div&gt;&lt;div&gt;Preço&lt;/div&gt;&lt;div&gt;Cavidades&lt;/div&gt;" style="text;html=1;strokeColor=none;fillColor=none;align=left;verticalAlign=middle;spacingLeft=4;spacingRight=4;overflow=hidden;rotatable=0;points=[[0,0.5],[1,0.5]];portConstraint=eastwest;whiteSpace=wrap;" vertex="1" parent="9WoN3y8LoAJ55qMCBkjY-25">
          <mxGeometry y="75" width="140" height="95" as="geometry" />
        </mxCell>
        <mxCell id="9WoN3y8LoAJ55qMCBkjY-28" value="Tabela&amp;nbsp;" style="text;html=1;strokeColor=none;fillColor=none;align=left;verticalAlign=middle;spacingLeft=4;spacingRight=4;overflow=hidden;rotatable=0;points=[[0,0.5],[1,0.5]];portConstraint=eastwest;fontColor=#808080;whiteSpace=wrap;" vertex="1" parent="9WoN3y8LoAJ55qMCBkjY-25">
          <mxGeometry y="170" width="140" height="15" as="geometry" />
        </mxCell>
        <mxCell id="9WoN3y8LoAJ55qMCBkjY-29" value="..." style="text;html=1;strokeColor=none;fillColor=none;align=left;verticalAlign=middle;spacingLeft=4;spacingRight=4;overflow=hidden;rotatable=0;points=[[0,0.5],[1,0.5]];portConstraint=eastwest;whiteSpace=wrap;" vertex="1" parent="9WoN3y8LoAJ55qMCBkjY-25">
          <mxGeometry y="185" width="140" height="20" as="geometry" />
        </mxCell>
        <mxCell id="9WoN3y8LoAJ55qMCBkjY-30" value="" style="line;strokeWidth=1;fillColor=none;align=left;verticalAlign=middle;spacingTop=-1;spacingLeft=3;spacingRight=3;rotatable=0;labelPosition=right;points=[];portConstraint=eastwest;" vertex="1" parent="9WoN3y8LoAJ55qMCBkjY-25">
          <mxGeometry y="205" width="140" height="8" as="geometry" />
        </mxCell>
        <mxCell id="9WoN3y8LoAJ55qMCBkjY-31" value="operations" style="text;html=1;strokeColor=none;fillColor=none;align=center;verticalAlign=middle;spacingLeft=4;spacingRight=4;overflow=hidden;rotatable=0;points=[[0,0.5],[1,0.5]];portConstraint=eastwest;whiteSpace=wrap;" vertex="1" parent="9WoN3y8LoAJ55qMCBkjY-25">
          <mxGeometry y="213" width="140" height="20" as="geometry" />
        </mxCell>
        <mxCell id="9WoN3y8LoAJ55qMCBkjY-32" value="Cadastrar&lt;div&gt;Alterar&lt;/div&gt;&lt;div&gt;Alterar Tudo&lt;/div&gt;&lt;div&gt;Excluir&lt;/div&gt;&lt;div&gt;Imprimir&lt;/div&gt;&lt;div&gt;MP(?)&lt;/div&gt;&lt;div&gt;Sair&lt;/div&gt;" style="text;html=1;strokeColor=none;fillColor=none;align=left;verticalAlign=middle;spacingLeft=4;spacingRight=4;overflow=hidden;rotatable=0;points=[[0,0.5],[1,0.5]];portConstraint=eastwest;whiteSpace=wrap;" vertex="1" parent="9WoN3y8LoAJ55qMCBkjY-25">
          <mxGeometry y="233" width="140" height="107" as="geometry" />
        </mxCell>
        <mxCell id="9WoN3y8LoAJ55qMCBkjY-33" value="Cadastrar&lt;div&gt;(Possui todas informações preenchidas?)&lt;/div&gt;" style="fontStyle=1;whiteSpace=wrap;html=1;" vertex="1" parent="1">
          <mxGeometry x="-1820" y="-140" width="150" height="70" as="geometry" />
        </mxCell>
        <mxCell id="9WoN3y8LoAJ55qMCBkjY-35" value="" style="endArrow=classic;html=1;rounded=0;" edge="1" parent="1" target="9WoN3y8LoAJ55qMCBkjY-36">
          <mxGeometry width="50" height="50" relative="1" as="geometry">
            <mxPoint x="-1670" y="-105.5" as="sourcePoint" />
            <mxPoint x="-1550" y="-105" as="targetPoint" />
            <Array as="points">
              <mxPoint x="-1630" y="-105.5" />
            </Array>
          </mxGeometry>
        </mxCell>
        <mxCell id="9WoN3y8LoAJ55qMCBkjY-37" value="SIM" style="edgeLabel;html=1;align=center;verticalAlign=middle;resizable=0;points=[];" vertex="1" connectable="0" parent="9WoN3y8LoAJ55qMCBkjY-35">
          <mxGeometry x="-0.0654" y="-1" relative="1" as="geometry">
            <mxPoint as="offset" />
          </mxGeometry>
        </mxCell>
        <mxCell id="9WoN3y8LoAJ55qMCBkjY-36" value="Cadstrado com sucesso" style="html=1;align=center;verticalAlign=top;rounded=1;absoluteArcSize=1;arcSize=10;dashed=1;whiteSpace=wrap;" vertex="1" parent="1">
          <mxGeometry x="-1554" y="-125" width="140" height="40" as="geometry" />
        </mxCell>
        <mxCell id="9WoN3y8LoAJ55qMCBkjY-39" value="Preencha todos os dados" style="html=1;align=center;verticalAlign=top;rounded=1;absoluteArcSize=1;arcSize=10;dashed=1;whiteSpace=wrap;" vertex="1" parent="1">
          <mxGeometry x="-1970" y="-50" width="140" height="40" as="geometry" />
        </mxCell>
        <mxCell id="9WoN3y8LoAJ55qMCBkjY-40" value="" style="endArrow=open;startArrow=none;endFill=0;startFill=0;endSize=8;html=1;verticalAlign=bottom;labelBackgroundColor=none;strokeWidth=1;rounded=0;exitX=0.5;exitY=1;exitDx=0;exitDy=0;entryX=1;entryY=0.5;entryDx=0;entryDy=0;" edge="1" parent="1" source="9WoN3y8LoAJ55qMCBkjY-33" target="9WoN3y8LoAJ55qMCBkjY-39">
          <mxGeometry width="160" relative="1" as="geometry">
            <mxPoint x="-1770" y="-30.5" as="sourcePoint" />
            <mxPoint x="-1610" y="-30.5" as="targetPoint" />
            <Array as="points">
              <mxPoint x="-1745" y="-30" />
            </Array>
          </mxGeometry>
        </mxCell>
        <mxCell id="9WoN3y8LoAJ55qMCBkjY-41" value="Não&lt;div&gt;&lt;br&gt;&lt;/div&gt;" style="edgeLabel;html=1;align=center;verticalAlign=middle;resizable=0;points=[];" vertex="1" connectable="0" parent="9WoN3y8LoAJ55qMCBkjY-40">
          <mxGeometry x="0.1168" y="-2" relative="1" as="geometry">
            <mxPoint as="offset" />
          </mxGeometry>
        </mxCell>
        <mxCell id="9WoN3y8LoAJ55qMCBkjY-42" value="" style="endArrow=open;startArrow=none;endFill=0;startFill=0;endSize=8;html=1;verticalAlign=bottom;labelBackgroundColor=none;strokeWidth=1;rounded=0;exitX=0.5;exitY=0;exitDx=0;exitDy=0;" edge="1" parent="1" source="9WoN3y8LoAJ55qMCBkjY-39">
          <mxGeometry width="160" relative="1" as="geometry">
            <mxPoint x="-1900" y="-105" as="sourcePoint" />
            <mxPoint x="-1820" y="-105.5" as="targetPoint" />
            <Array as="points">
              <mxPoint x="-1900" y="-105" />
            </Array>
          </mxGeometry>
        </mxCell>
        <mxCell id="9WoN3y8LoAJ55qMCBkjY-43" value="" style="html=1;verticalAlign=bottom;labelBackgroundColor=none;endArrow=block;endFill=1;endSize=6;align=left;rounded=0;" edge="1" parent="1">
          <mxGeometry x="-1" relative="1" as="geometry">
            <mxPoint x="-2010" y="-105.5" as="sourcePoint" />
            <mxPoint x="-1820" y="-105" as="targetPoint" />
            <Array as="points">
              <mxPoint x="-1920" y="-105.5" />
            </Array>
          </mxGeometry>
        </mxCell>
      </root>
    </mxGraphModel>
  </diagram>
</mxfile>
